<?xml version="1.0" encoding="utf-8"?>
<!-- Generator: Adobe Illustrator 18.1.0, SVG Export Plug-In . SVG Version: 6.00 Build 0)  -->
<svg version="1.1" id="Layer_1" xmlns="http://www.w3.org/2000/svg" xmlns:xlink="http://www.w3.org/1999/xlink" x="0px" y="0px"
	 viewBox="55.6 121.1 402.5 246.9" enable-background="new 55.6 121.1 402.5 246.9" xml:space="preserve">
<path stroke="#000000" stroke-width="0.5" stroke-miterlimit="10" d="M120.8,215.5c6.5,5.2,5.5,9.5,5,14.2s-7.2,51.2-8.8,59
	s-8.2,54.2-8.2,70S91,369.2,91,350.2s6.2-54.2,8.8-68.5s6.2-42,6.5-54.5c0.1-2.8-0.2-7.3,1.8-11c-4.9,3.2-34.5,20.3-38.8,22.6
	c-6.2,3.6-20.4-5.8-10-15.8l0.8,1.6c0,0,11.1-5,23.1-12.5C239,104.3,266,199.7,183,304c-1.4,1.9-1.1,8.8-2.6,14.9s-4.6,7.5-10.4,4.9
	c-8-3.6-12.8-11.9-10-17c0.1-1.8,2.2-4.9,3.4-6.8s143.4-190.5-47.6-89C117.2,212.6,120.8,215.5,120.8,215.5z"/>
<path stroke="#000000" stroke-width="0.5" stroke-miterlimit="10" d="M234.2,227.5c2.4-11.8,11.8-62.8,12.9-73.5
	c1.2-9.3,2.8-12.8,11.2-10.8c8.3,2,11.2,9,11.2,9s2.3,3.7,0,8.7s-3,8.7-3.5,12.2s-6.8,33.5-9.8,51.5c9.8-27.8,42.2-78.5,56.7-103.5
	c4.2,1.7,12.3,6.5,16.7,16c-3.5,4-2,2.3-7.5,10.2c-60,100.3-79.6,139.1,65.2,77.6c64.8-24,67-19.5,70.8-13.2
	c-4.8,8-20.8,15.8-26.8,17.8s-72,28.5-102.8,40s-76.2,9.8-73.2-40c-4.2,20-7.8,38-10,51.8s-4.2,26-3.2,36.5s-4.5,11-9.2,10
	s-11.2-3.2-11.5-20.5S232.8,235,234.2,227.5z"/>
</svg>
