<?xml version="1.0" encoding="utf-8"?>
<!-- Generator: Adobe Illustrator 18.1.0, SVG Export Plug-In . SVG Version: 6.00 Build 0)  -->
<svg version="1.1" id="Layer_1" xmlns="http://www.w3.org/2000/svg" xmlns:xlink="http://www.w3.org/1999/xlink" x="0px" y="0px"
	 viewBox="0 0 600 600" enable-background="new 0 0 600 600" xml:space="preserve">
<path fill="#FFFFFF" stroke="#FFFFFF" stroke-width="0.5" stroke-miterlimit="10" d="M152.8,377.8c9.7,7.8,8.2,14.2,7.5,21.2
	c-0.7,7-10.7,76.3-13.1,88c-2.4,11.6-12.2,80.8-12.2,104.3c0,23.6-26.5,15.7-26.5-12.7s9.2-80.8,13.1-102.1s9.2-62.6,9.7-81.2
	c0.1-4.2-0.3-10.9,2.7-16.4c-7.3,4.8-51.4,30.3-57.8,33.7c-9.2,5.4-30.4-8.6-14.9-23.6l1.2,2.4c0,0,16.5-7.5,34.4-18.6
	C329,212,369.2,354.2,245.5,509.7c-2.1,2.8-1.6,13.1-3.9,22.2c-2.2,9.1-6.9,11.2-15.5,7.3c-11.9-5.4-19.1-17.7-14.9-25.3
	c0.1-2.7,3.3-7.3,5.1-10.1c1.8-2.8,213.8-284-71-132.7C147.4,373.5,152.8,377.8,152.8,377.8z"/>
<path fill="#FFFFFF" stroke="#FFFFFF" stroke-width="0.5" stroke-miterlimit="10" d="M321.8,395.7c3.6-17.6,17.6-93.6,19.2-109.6
	c1.8-13.9,4.2-19.1,16.7-16.1c12.4,3,16.7,13.4,16.7,13.4s3.4,5.5,0,13c-3.4,7.5-4.5,13-5.2,18.2c-0.7,5.2-10.1,49.9-14.6,76.8
	c14.6-41.4,62.9-117,84.5-154.3c6.3,2.5,18.3,9.7,24.9,23.9c-5.2,6-3,3.4-11.2,15.2c-89.4,149.5-118.7,207.4,97.2,115.7
	c96.6-35.8,99.9-29.1,105.5-19.7c-7.2,11.9-31,23.6-40,26.5c-8.9,3-107.3,42.5-153.2,59.6c-45.9,17.1-113.6,14.6-109.1-59.6
	c-6.3,29.8-11.6,56.6-14.9,77.2c-3.3,20.6-6.3,38.8-4.8,54.4s-6.7,16.4-13.7,14.9c-7-1.5-16.7-4.8-17.1-30.6
	C302.3,488.9,319.7,406.9,321.8,395.7z"/>
</svg>
